<mxfile host="app.diagrams.net" agent="Mozilla/5.0 (Windows NT 10.0; Win64; x64; rv:128.0) Gecko/20100101 Firefox/128.0" version="28.0.7">
  <diagram name="Page-1" id="ESyPwlhjBHD7mCf8iIqL">
    <mxGraphModel dx="914" dy="536" grid="1" gridSize="10" guides="1" tooltips="1" connect="1" arrows="1" fold="1" page="1" pageScale="1" pageWidth="850" pageHeight="1100" math="0" shadow="0">
      <root>
        <mxCell id="0" />
        <mxCell id="1" parent="0" />
        <mxCell id="MlYqjOnE9EuYvu6xzNQ--1" value="&lt;div&gt;&lt;b&gt;&lt;font style=&quot;font-size: 14px;&quot;&gt;What is the Memnto Pattern?&lt;/font&gt;&lt;/b&gt;&lt;/div&gt;&lt;div&gt;&lt;b&gt;&lt;font style=&quot;font-size: 14px;&quot;&gt;&lt;br&gt;&lt;/font&gt;&lt;/b&gt;&lt;/div&gt;&lt;div&gt;&lt;font style=&quot;font-size: 14px;&quot;&gt;The Memento Pattern is used to: Save and restore the previous state of an object without violating its encapsulation.&lt;/font&gt;&lt;/div&gt;&lt;div&gt;&lt;font style=&quot;font-size: 14px;&quot;&gt;It&#39;s often used when you want to provide undo/redo functionality.&lt;/font&gt;&lt;/div&gt;&lt;div&gt;&lt;font style=&quot;font-size: 14px;&quot;&gt;&lt;br&gt;&lt;/font&gt;&lt;/div&gt;&lt;div&gt;&lt;font style=&quot;font-size: 14px;&quot;&gt;Key Participants&lt;/font&gt;&lt;/div&gt;&lt;div&gt;&lt;ol&gt;&lt;li&gt;&lt;font style=&quot;font-size: 14px;&quot;&gt;Originator&amp;nbsp; -- The object whose state you want to save and restore.&lt;/font&gt;&lt;/li&gt;&lt;li&gt;&lt;font style=&quot;font-size: 14px;&quot;&gt;Memento&amp;nbsp;&amp;nbsp; --&amp;nbsp; A snapshot (object) that stores the internal state of the Originator.&lt;/font&gt;&lt;/li&gt;&lt;li&gt;&lt;font style=&quot;font-size: 14px;&quot;&gt;Caretaker&amp;nbsp; --&amp;nbsp; Manages the history of Mementos but doesn&#39;t examine or modify them.&lt;/font&gt;&lt;/li&gt;&lt;/ol&gt;&lt;div&gt;&lt;b&gt;&lt;font style=&quot;font-size: 14px;&quot;&gt;Real-World Analogy&lt;/font&gt;&lt;/b&gt;&lt;/div&gt;&lt;div&gt;&lt;font style=&quot;font-size: 14px;&quot;&gt;Think of a text editor:&lt;/font&gt;&lt;/div&gt;&lt;div&gt;&lt;ul&gt;&lt;li&gt;You type something -&amp;gt; Editor saves a version (memento).&lt;/li&gt;&lt;li&gt;You hit Undo -&amp;gt; The editor restores the previous version from saved state.&lt;/li&gt;&lt;/ul&gt;&lt;div&gt;&lt;br&gt;&lt;/div&gt;&lt;/div&gt;&lt;/div&gt;" style="text;html=1;align=left;verticalAlign=middle;whiteSpace=wrap;rounded=0;" vertex="1" parent="1">
          <mxGeometry x="40" y="50" width="800" height="230" as="geometry" />
        </mxCell>
        <mxCell id="MlYqjOnE9EuYvu6xzNQ--2" value="" style="shape=table;startSize=0;container=1;collapsible=0;childLayout=tableLayout;" vertex="1" parent="1">
          <mxGeometry x="40" y="320" width="720" height="240" as="geometry" />
        </mxCell>
        <mxCell id="MlYqjOnE9EuYvu6xzNQ--3" value="" style="shape=tableRow;horizontal=0;startSize=0;swimlaneHead=0;swimlaneBody=0;strokeColor=inherit;top=0;left=0;bottom=0;right=0;collapsible=0;dropTarget=0;fillColor=none;points=[[0,0.5],[1,0.5]];portConstraint=eastwest;" vertex="1" parent="MlYqjOnE9EuYvu6xzNQ--2">
          <mxGeometry width="720" height="40" as="geometry" />
        </mxCell>
        <mxCell id="MlYqjOnE9EuYvu6xzNQ--4" value="Use Case" style="shape=partialRectangle;html=1;whiteSpace=wrap;connectable=0;strokeColor=inherit;overflow=hidden;fillColor=none;top=0;left=0;bottom=0;right=0;pointerEvents=1;" vertex="1" parent="MlYqjOnE9EuYvu6xzNQ--3">
          <mxGeometry width="360" height="40" as="geometry">
            <mxRectangle width="360" height="40" as="alternateBounds" />
          </mxGeometry>
        </mxCell>
        <mxCell id="MlYqjOnE9EuYvu6xzNQ--5" value="Why Memento Helps" style="shape=partialRectangle;html=1;whiteSpace=wrap;connectable=0;strokeColor=inherit;overflow=hidden;fillColor=none;top=0;left=0;bottom=0;right=0;pointerEvents=1;" vertex="1" parent="MlYqjOnE9EuYvu6xzNQ--3">
          <mxGeometry x="360" width="360" height="40" as="geometry">
            <mxRectangle width="360" height="40" as="alternateBounds" />
          </mxGeometry>
        </mxCell>
        <mxCell id="MlYqjOnE9EuYvu6xzNQ--6" value="" style="shape=tableRow;horizontal=0;startSize=0;swimlaneHead=0;swimlaneBody=0;strokeColor=inherit;top=0;left=0;bottom=0;right=0;collapsible=0;dropTarget=0;fillColor=none;points=[[0,0.5],[1,0.5]];portConstraint=eastwest;" vertex="1" parent="MlYqjOnE9EuYvu6xzNQ--2">
          <mxGeometry y="40" width="720" height="40" as="geometry" />
        </mxCell>
        <mxCell id="MlYqjOnE9EuYvu6xzNQ--7" value="Text editor undo/redo" style="shape=partialRectangle;html=1;whiteSpace=wrap;connectable=0;strokeColor=inherit;overflow=hidden;fillColor=none;top=0;left=0;bottom=0;right=0;pointerEvents=1;" vertex="1" parent="MlYqjOnE9EuYvu6xzNQ--6">
          <mxGeometry width="360" height="40" as="geometry">
            <mxRectangle width="360" height="40" as="alternateBounds" />
          </mxGeometry>
        </mxCell>
        <mxCell id="MlYqjOnE9EuYvu6xzNQ--8" value="Restore old document states" style="shape=partialRectangle;html=1;whiteSpace=wrap;connectable=0;strokeColor=inherit;overflow=hidden;fillColor=none;top=0;left=0;bottom=0;right=0;pointerEvents=1;" vertex="1" parent="MlYqjOnE9EuYvu6xzNQ--6">
          <mxGeometry x="360" width="360" height="40" as="geometry">
            <mxRectangle width="360" height="40" as="alternateBounds" />
          </mxGeometry>
        </mxCell>
        <mxCell id="MlYqjOnE9EuYvu6xzNQ--9" value="" style="shape=tableRow;horizontal=0;startSize=0;swimlaneHead=0;swimlaneBody=0;strokeColor=inherit;top=0;left=0;bottom=0;right=0;collapsible=0;dropTarget=0;fillColor=none;points=[[0,0.5],[1,0.5]];portConstraint=eastwest;" vertex="1" parent="MlYqjOnE9EuYvu6xzNQ--2">
          <mxGeometry y="80" width="720" height="40" as="geometry" />
        </mxCell>
        <mxCell id="MlYqjOnE9EuYvu6xzNQ--10" value="Game save/load system" style="shape=partialRectangle;html=1;whiteSpace=wrap;connectable=0;strokeColor=inherit;overflow=hidden;fillColor=none;top=0;left=0;bottom=0;right=0;pointerEvents=1;" vertex="1" parent="MlYqjOnE9EuYvu6xzNQ--9">
          <mxGeometry width="360" height="40" as="geometry">
            <mxRectangle width="360" height="40" as="alternateBounds" />
          </mxGeometry>
        </mxCell>
        <mxCell id="MlYqjOnE9EuYvu6xzNQ--11" value="Save and restore game progress" style="shape=partialRectangle;html=1;whiteSpace=wrap;connectable=0;strokeColor=inherit;overflow=hidden;fillColor=none;top=0;left=0;bottom=0;right=0;pointerEvents=1;" vertex="1" parent="MlYqjOnE9EuYvu6xzNQ--9">
          <mxGeometry x="360" width="360" height="40" as="geometry">
            <mxRectangle width="360" height="40" as="alternateBounds" />
          </mxGeometry>
        </mxCell>
        <mxCell id="MlYqjOnE9EuYvu6xzNQ--12" value="" style="shape=tableRow;horizontal=0;startSize=0;swimlaneHead=0;swimlaneBody=0;strokeColor=inherit;top=0;left=0;bottom=0;right=0;collapsible=0;dropTarget=0;fillColor=none;points=[[0,0.5],[1,0.5]];portConstraint=eastwest;" vertex="1" parent="MlYqjOnE9EuYvu6xzNQ--2">
          <mxGeometry y="120" width="720" height="40" as="geometry" />
        </mxCell>
        <mxCell id="MlYqjOnE9EuYvu6xzNQ--13" value="Form with rollback functionality" style="shape=partialRectangle;html=1;whiteSpace=wrap;connectable=0;strokeColor=inherit;overflow=hidden;fillColor=none;top=0;left=0;bottom=0;right=0;pointerEvents=1;" vertex="1" parent="MlYqjOnE9EuYvu6xzNQ--12">
          <mxGeometry width="360" height="40" as="geometry">
            <mxRectangle width="360" height="40" as="alternateBounds" />
          </mxGeometry>
        </mxCell>
        <mxCell id="MlYqjOnE9EuYvu6xzNQ--14" value="Go back to a previous form state" style="shape=partialRectangle;html=1;whiteSpace=wrap;connectable=0;strokeColor=inherit;overflow=hidden;fillColor=none;top=0;left=0;bottom=0;right=0;pointerEvents=1;" vertex="1" parent="MlYqjOnE9EuYvu6xzNQ--12">
          <mxGeometry x="360" width="360" height="40" as="geometry">
            <mxRectangle width="360" height="40" as="alternateBounds" />
          </mxGeometry>
        </mxCell>
        <mxCell id="MlYqjOnE9EuYvu6xzNQ--15" value="" style="shape=tableRow;horizontal=0;startSize=0;swimlaneHead=0;swimlaneBody=0;strokeColor=inherit;top=0;left=0;bottom=0;right=0;collapsible=0;dropTarget=0;fillColor=none;points=[[0,0.5],[1,0.5]];portConstraint=eastwest;" vertex="1" parent="MlYqjOnE9EuYvu6xzNQ--2">
          <mxGeometry y="160" width="720" height="40" as="geometry" />
        </mxCell>
        <mxCell id="MlYqjOnE9EuYvu6xzNQ--16" value="Configuration change tracking" style="shape=partialRectangle;html=1;whiteSpace=wrap;connectable=0;strokeColor=inherit;overflow=hidden;fillColor=none;top=0;left=0;bottom=0;right=0;pointerEvents=1;" vertex="1" parent="MlYqjOnE9EuYvu6xzNQ--15">
          <mxGeometry width="360" height="40" as="geometry">
            <mxRectangle width="360" height="40" as="alternateBounds" />
          </mxGeometry>
        </mxCell>
        <mxCell id="MlYqjOnE9EuYvu6xzNQ--17" value="Restore previous configuration versions" style="shape=partialRectangle;html=1;whiteSpace=wrap;connectable=0;strokeColor=inherit;overflow=hidden;fillColor=none;top=0;left=0;bottom=0;right=0;pointerEvents=1;" vertex="1" parent="MlYqjOnE9EuYvu6xzNQ--15">
          <mxGeometry x="360" width="360" height="40" as="geometry">
            <mxRectangle width="360" height="40" as="alternateBounds" />
          </mxGeometry>
        </mxCell>
        <mxCell id="MlYqjOnE9EuYvu6xzNQ--18" value="" style="shape=tableRow;horizontal=0;startSize=0;swimlaneHead=0;swimlaneBody=0;strokeColor=inherit;top=0;left=0;bottom=0;right=0;collapsible=0;dropTarget=0;fillColor=none;points=[[0,0.5],[1,0.5]];portConstraint=eastwest;" vertex="1" parent="MlYqjOnE9EuYvu6xzNQ--2">
          <mxGeometry y="200" width="720" height="40" as="geometry" />
        </mxCell>
        <mxCell id="MlYqjOnE9EuYvu6xzNQ--19" value="" style="shape=partialRectangle;html=1;whiteSpace=wrap;connectable=0;strokeColor=inherit;overflow=hidden;fillColor=none;top=0;left=0;bottom=0;right=0;pointerEvents=1;" vertex="1" parent="MlYqjOnE9EuYvu6xzNQ--18">
          <mxGeometry width="360" height="40" as="geometry">
            <mxRectangle width="360" height="40" as="alternateBounds" />
          </mxGeometry>
        </mxCell>
        <mxCell id="MlYqjOnE9EuYvu6xzNQ--20" value="" style="shape=partialRectangle;html=1;whiteSpace=wrap;connectable=0;strokeColor=inherit;overflow=hidden;fillColor=none;top=0;left=0;bottom=0;right=0;pointerEvents=1;" vertex="1" parent="MlYqjOnE9EuYvu6xzNQ--18">
          <mxGeometry x="360" width="360" height="40" as="geometry">
            <mxRectangle width="360" height="40" as="alternateBounds" />
          </mxGeometry>
        </mxCell>
        <mxCell id="MlYqjOnE9EuYvu6xzNQ--21" value="Caretaker" style="swimlane;fontStyle=1;align=center;verticalAlign=top;childLayout=stackLayout;horizontal=1;startSize=26;horizontalStack=0;resizeParent=1;resizeParentMax=0;resizeLast=0;collapsible=1;marginBottom=0;whiteSpace=wrap;html=1;" vertex="1" parent="1">
          <mxGeometry x="40" y="600" width="240" height="112" as="geometry" />
        </mxCell>
        <mxCell id="MlYqjOnE9EuYvu6xzNQ--22" value="+ mementos: Memento" style="text;strokeColor=none;fillColor=none;align=left;verticalAlign=top;spacingLeft=4;spacingRight=4;overflow=hidden;rotatable=0;points=[[0,0.5],[1,0.5]];portConstraint=eastwest;whiteSpace=wrap;html=1;" vertex="1" parent="MlYqjOnE9EuYvu6xzNQ--21">
          <mxGeometry y="26" width="240" height="26" as="geometry" />
        </mxCell>
        <mxCell id="MlYqjOnE9EuYvu6xzNQ--23" value="" style="line;strokeWidth=1;fillColor=none;align=left;verticalAlign=middle;spacingTop=-1;spacingLeft=3;spacingRight=3;rotatable=0;labelPosition=right;points=[];portConstraint=eastwest;strokeColor=inherit;" vertex="1" parent="MlYqjOnE9EuYvu6xzNQ--21">
          <mxGeometry y="52" width="240" height="8" as="geometry" />
        </mxCell>
        <mxCell id="MlYqjOnE9EuYvu6xzNQ--24" value="+ SaveState(originator: Originator): void" style="text;strokeColor=none;fillColor=none;align=left;verticalAlign=top;spacingLeft=4;spacingRight=4;overflow=hidden;rotatable=0;points=[[0,0.5],[1,0.5]];portConstraint=eastwest;whiteSpace=wrap;html=1;" vertex="1" parent="MlYqjOnE9EuYvu6xzNQ--21">
          <mxGeometry y="60" width="240" height="26" as="geometry" />
        </mxCell>
        <mxCell id="MlYqjOnE9EuYvu6xzNQ--25" value="+ Undo(originator: Originator): void" style="text;strokeColor=none;fillColor=none;align=left;verticalAlign=top;spacingLeft=4;spacingRight=4;overflow=hidden;rotatable=0;points=[[0,0.5],[1,0.5]];portConstraint=eastwest;whiteSpace=wrap;html=1;" vertex="1" parent="MlYqjOnE9EuYvu6xzNQ--21">
          <mxGeometry y="86" width="240" height="26" as="geometry" />
        </mxCell>
        <mxCell id="MlYqjOnE9EuYvu6xzNQ--26" value="Originator" style="swimlane;fontStyle=1;align=center;verticalAlign=top;childLayout=stackLayout;horizontal=1;startSize=26;horizontalStack=0;resizeParent=1;resizeParentMax=0;resizeLast=0;collapsible=1;marginBottom=0;whiteSpace=wrap;html=1;" vertex="1" parent="1">
          <mxGeometry x="400" y="760" width="240" height="112" as="geometry" />
        </mxCell>
        <mxCell id="MlYqjOnE9EuYvu6xzNQ--27" value="+ state: object" style="text;strokeColor=none;fillColor=none;align=left;verticalAlign=top;spacingLeft=4;spacingRight=4;overflow=hidden;rotatable=0;points=[[0,0.5],[1,0.5]];portConstraint=eastwest;whiteSpace=wrap;html=1;" vertex="1" parent="MlYqjOnE9EuYvu6xzNQ--26">
          <mxGeometry y="26" width="240" height="26" as="geometry" />
        </mxCell>
        <mxCell id="MlYqjOnE9EuYvu6xzNQ--28" value="" style="line;strokeWidth=1;fillColor=none;align=left;verticalAlign=middle;spacingTop=-1;spacingLeft=3;spacingRight=3;rotatable=0;labelPosition=right;points=[];portConstraint=eastwest;strokeColor=inherit;" vertex="1" parent="MlYqjOnE9EuYvu6xzNQ--26">
          <mxGeometry y="52" width="240" height="8" as="geometry" />
        </mxCell>
        <mxCell id="MlYqjOnE9EuYvu6xzNQ--29" value="+ CreateMemento(): void" style="text;strokeColor=none;fillColor=none;align=left;verticalAlign=top;spacingLeft=4;spacingRight=4;overflow=hidden;rotatable=0;points=[[0,0.5],[1,0.5]];portConstraint=eastwest;whiteSpace=wrap;html=1;" vertex="1" parent="MlYqjOnE9EuYvu6xzNQ--26">
          <mxGeometry y="60" width="240" height="26" as="geometry" />
        </mxCell>
        <mxCell id="MlYqjOnE9EuYvu6xzNQ--30" value="+ Restore(memento: Memento): void" style="text;strokeColor=none;fillColor=none;align=left;verticalAlign=top;spacingLeft=4;spacingRight=4;overflow=hidden;rotatable=0;points=[[0,0.5],[1,0.5]];portConstraint=eastwest;whiteSpace=wrap;html=1;" vertex="1" parent="MlYqjOnE9EuYvu6xzNQ--26">
          <mxGeometry y="86" width="240" height="26" as="geometry" />
        </mxCell>
        <mxCell id="MlYqjOnE9EuYvu6xzNQ--31" value="" style="endArrow=diamondThin;endFill=0;endSize=24;html=1;rounded=0;entryX=1.008;entryY=-0.038;entryDx=0;entryDy=0;entryPerimeter=0;exitX=0.004;exitY=-0.115;exitDx=0;exitDy=0;exitPerimeter=0;" edge="1" parent="1">
          <mxGeometry width="160" relative="1" as="geometry">
            <mxPoint x="399.04" y="640" as="sourcePoint" />
            <mxPoint x="280.00000000000006" y="642.002" as="targetPoint" />
          </mxGeometry>
        </mxCell>
        <mxCell id="MlYqjOnE9EuYvu6xzNQ--32" value="Memento" style="swimlane;fontStyle=1;align=center;verticalAlign=top;childLayout=stackLayout;horizontal=1;startSize=26;horizontalStack=0;resizeParent=1;resizeParentMax=0;resizeLast=0;collapsible=1;marginBottom=0;whiteSpace=wrap;html=1;" vertex="1" parent="1">
          <mxGeometry x="400" y="600" width="240" height="60" as="geometry" />
        </mxCell>
        <mxCell id="MlYqjOnE9EuYvu6xzNQ--33" value="+ state: object" style="text;strokeColor=none;fillColor=none;align=left;verticalAlign=top;spacingLeft=4;spacingRight=4;overflow=hidden;rotatable=0;points=[[0,0.5],[1,0.5]];portConstraint=eastwest;whiteSpace=wrap;html=1;" vertex="1" parent="MlYqjOnE9EuYvu6xzNQ--32">
          <mxGeometry y="26" width="240" height="26" as="geometry" />
        </mxCell>
        <mxCell id="MlYqjOnE9EuYvu6xzNQ--34" value="" style="line;strokeWidth=1;fillColor=none;align=left;verticalAlign=middle;spacingTop=-1;spacingLeft=3;spacingRight=3;rotatable=0;labelPosition=right;points=[];portConstraint=eastwest;strokeColor=inherit;" vertex="1" parent="MlYqjOnE9EuYvu6xzNQ--32">
          <mxGeometry y="52" width="240" height="8" as="geometry" />
        </mxCell>
        <mxCell id="MlYqjOnE9EuYvu6xzNQ--41" value="" style="endArrow=none;html=1;edgeStyle=orthogonalEdgeStyle;rounded=0;exitX=0.5;exitY=1;exitDx=0;exitDy=0;entryX=0.5;entryY=0;entryDx=0;entryDy=0;" edge="1" parent="1" target="MlYqjOnE9EuYvu6xzNQ--26">
          <mxGeometry relative="1" as="geometry">
            <mxPoint x="519.5" y="660" as="sourcePoint" />
            <mxPoint x="519.5" y="750" as="targetPoint" />
          </mxGeometry>
        </mxCell>
        <mxCell id="MlYqjOnE9EuYvu6xzNQ--42" value="*" style="edgeLabel;resizable=0;html=1;align=left;verticalAlign=bottom;" connectable="0" vertex="1" parent="MlYqjOnE9EuYvu6xzNQ--41">
          <mxGeometry x="-1" relative="1" as="geometry" />
        </mxCell>
        <mxCell id="MlYqjOnE9EuYvu6xzNQ--43" value="1" style="edgeLabel;resizable=0;html=1;align=right;verticalAlign=bottom;" connectable="0" vertex="1" parent="MlYqjOnE9EuYvu6xzNQ--41">
          <mxGeometry x="1" relative="1" as="geometry" />
        </mxCell>
        <mxCell id="MlYqjOnE9EuYvu6xzNQ--44" value="&lt;div&gt;&lt;font style=&quot;font-size: 14px;&quot;&gt;&lt;b&gt;Their Relationship in Practice&lt;/b&gt;&lt;/font&gt;&lt;/div&gt;&lt;div&gt;&lt;ul&gt;&lt;li&gt;The Originator has the knowledge of how to save and restore its state.&lt;/li&gt;&lt;li&gt;The Caretaker acts like a history manager or an undo manager.&lt;/li&gt;&lt;li&gt;The Caretaker asks the Originator to create a memento, and it keeps that memento safe for later.&lt;/li&gt;&lt;li&gt;When needed, the Caretaker gives the memento back to the Originator so it can restore its state.&lt;/li&gt;&lt;/ul&gt;&lt;div&gt;The Caretaker never directly accesses the state inside the memento -- this preserves encapsulation. You let the object itself control how its state is saved and restored, rather than exposing its internal fields directly.&lt;/div&gt;&lt;/div&gt;" style="text;html=1;align=left;verticalAlign=middle;whiteSpace=wrap;rounded=0;" vertex="1" parent="1">
          <mxGeometry x="40" y="920" width="760" height="120" as="geometry" />
        </mxCell>
      </root>
    </mxGraphModel>
  </diagram>
</mxfile>
